General
Complete name                            : Sin City (HD 1080p).m4v
Format                                   : MPEG-4
Format profile                           : Base Media / Version 2
Codec ID                                 : mp42
File size                                : 12.1 GiB
Duration                                 : 2h 3mn
Overall bit rate mode                    : Variable
Overall bit rate                         : 13.9 Mbps
Movie name                               : Sin City
Performer                                : Bruce Willis, Mickey Rourke, Clive Owen, Jessica Alba, Elijah Wood, Josh Hartnett, Jaime King, Rutger Hauer, Benicio Del Toro, Rosario Dawson, Michael Clarke Duncan, Devon Aoki, Alexis Bledel, Powers Boothe, Marley Shelton, Nick Stahl, Michael Madsen, Makenzie Vega, Brittany Murphy, Carla Gugino
Genre                                    : Action, Thriller, Crime
Recorded date                            : 2005-04-01
Encoded date                             : UTC 2013-01-14 00:05:27
Tagged date                              : UTC 2013-02-19 05:20:06
Writing application                      : HandBrake 5167svn 2013011201
Cover                                    : Yes
desc                                     : Sin City is a neo-noir crime thriller based on Frank Miller's graphic novel series of the same name.The film is primarily based on three of Miller's works: The Hard Goodbye, about a man who embarks on a brutal rampage in search of his one-time sweetheart's killer; The Big Fat Kill, which focuses on a street war between a group of prostitutes and a group of mercenaries; and That Yellow Bastard, which follows an aging police officer who protects a young woman from a grotesquely disfigured serial killer.

Video #1
ID                                       : 1
Format                                   : AVC
Format/Info                              : Advanced Video Codec
Format profile                           : High@L4.0
Format settings, CABAC                   : Yes
Format settings, ReFrames                : 4 frames
Codec ID                                 : avc1
Codec ID/Info                            : Advanced Video Coding
Duration                                 : 2h 3mn
Bit rate mode                            : Variable
Bit rate                                 : 13.1 Mbps
Width                                    : 1 920 pixels
Height                                   : 1 036 pixels
Display aspect ratio                     : 1.85:1
Frame rate mode                          : Variable
Frame rate                               : 23.976 fps
Minimum frame rate                       : 23.810 fps
Maximum frame rate                       : 30.000 fps
Color space                              : YUV
Chroma subsampling                       : 4:2:0
Bit depth                                : 8 bits
Scan type                                : Progressive
Bits/(Pixel*Frame)                       : 0.274
Stream size                              : 11.3 GiB (94%)
Writing library                          : x264 core 128
Encoding settings                        : cabac=1 / ref=4 / deblock=1:0:0 / analyse=0x3:0x133 / me=umh / subme=10 / psy=1 / psy_rd=1.00:0.15 / mixed_ref=1 / me_range=32 / chroma_me=1 / trellis=2 / 8x8dct=1 / cqm=0 / deadzone=21,11 / fast_pskip=1 / chroma_qp_offset=-3 / threads=12 / lookahead_threads=2 / sliced_threads=0 / nr=0 / decimate=1 / interlaced=0 / bluray_compat=0 / constrained_intra=0 / bframes=4 / b_pyramid=2 / b_adapt=2 / b_bias=0 / direct=3 / weightb=1 / open_gop=0 / weightp=2 / keyint=300 / keyint_min=30 / scenecut=40 / intra_refresh=0 / rc_lookahead=60 / rc=crf / mbtree=1 / crf=18.0 / qcomp=0.60 / qpmin=4 / qpmax=69 / qpstep=4 / ip_ratio=1.40 / aq=1:1.00
Language                                 : English
Encoded date                             : UTC 2013-01-14 00:05:27
Tagged date                              : UTC 2013-01-14 08:36:30
Color primaries                          : BT.709
Transfer characteristics                 : BT.709
Matrix coefficients                      : BT.709

Audio #1
ID                                       : 2
Format                                   : AAC
Format/Info                              : Advanced Audio Codec
Format profile                           : LC
Codec ID                                 : 40
Duration                                 : 2h 3mn
Bit rate mode                            : Variable
Bit rate                                 : 198 Kbps
Maximum bit rate                         : 327 Kbps
Channel(s)                               : 2 channels
Channel positions                        : Front: L R
Sampling rate                            : 48.0 KHz
Compression mode                         : Lossy
Delay relative to video                  : 83ms
Stream size                              : 176 MiB (1%)
Language                                 : English
Encoded date                             : UTC 2013-01-14 00:05:27
Tagged date                              : UTC 2013-01-14 08:36:30

Audio #2
ID                                       : 3
Format                                   : AC-3
Format/Info                              : Audio Coding 3
Mode extension                           : CM (complete main)
Format settings, Endianness              : Big
Codec ID                                 : ac-3
Duration                                 : 2h 3mn
Bit rate mode                            : Constant
Bit rate                                 : 640 Kbps
Channel(s)                               : 6 channels
Channel positions                        : Front: L C R, Side: L R, LFE
Sampling rate                            : 48.0 KHz
Bit depth                                : 16 bits
Compression mode                         : Lossy
Delay relative to video                  : 83ms
Stream size                              : 568 MiB (5%)
Language                                 : English
Encoded date                             : UTC 2013-01-14 00:05:27
Tagged date                              : UTC 2013-01-14 08:36:30